HIERARCHY
ROOT hip
{
	OFFSET 0.000000 0.000000 0.000000 
	CHANNELS 6 Xposition Yposition Zposition Xrotation Zrotation Yrotation
	JOINT abdomen
	{
		OFFSET 0.000000 3.402643 0.000000 
		CHANNELS 3 Xrotation Zrotation Yrotation
		JOINT chest
		{
			OFFSET 0.000000 8.438565 -0.680529 
			CHANNELS 3 Xrotation Zrotation Yrotation
			JOINT neck
			{
				OFFSET 0.000000 10.207942 -0.272212 
				CHANNELS 3 Xrotation Zrotation Yrotation
				JOINT head
				{
					OFFSET 0.000000 3.130431 0.000000 
					CHANNELS 3 Xrotation Zrotation Yrotation
					End Site
					{
						OFFSET 0.000000 3.130435 0.000000 
					}
				}
			}
			JOINT lCollar
			{
				OFFSET 3.470700 6.669187 -0.816635 
				CHANNELS 3 Yrotation Zrotation Xrotation
				JOINT lShldr
				{
					OFFSET 3.198488 0.000000 0.000000 
					CHANNELS 3 Zrotation Yrotation Xrotation
					JOINT lForeArm
					{
						OFFSET 10.139888 0.000000 0.000000 
						CHANNELS 3 Yrotation Zrotation Xrotation
						JOINT lHand
						{
							OFFSET 8.370511 0.000000 0.000000 
							CHANNELS 3 Zrotation Yrotation Xrotation
							End Site
							{
								OFFSET 4.083176 0.000000 0.000000 
							}
						}
					}
				}
			}
			JOINT rCollar
			{
				OFFSET -3.470700 6.669187 -0.816635 
				CHANNELS 3 Yrotation Zrotation Xrotation
				JOINT rShldr
				{
					OFFSET -3.198488 0.000000 0.000000 
					CHANNELS 3 Zrotation Yrotation Xrotation
					JOINT rForeArm
					{
						OFFSET -10.139888 0.000000 0.000000 
						CHANNELS 3 Yrotation Zrotation Xrotation
						JOINT rHand
						{
							OFFSET -8.370511 0.000000 0.000000 
							CHANNELS 3 Zrotation Yrotation Xrotation
							End Site
							{
								OFFSET -4.083176 0.000000 0.000000 
							}
						}
					}
				}
			}
		}
	}
	JOINT lThigh
	{
		OFFSET 5.308129 -1.633274 1.361059 
		CHANNELS 3 Xrotation Zrotation Yrotation
		JOINT lShin
		{
			OFFSET -2.041588 -20.007561 0.000000 
			CHANNELS 3 Xrotation Zrotation Yrotation
			JOINT lFoot
			{
				OFFSET 0.000000 -19.190928 -1.224953 
				CHANNELS 3 Xrotation Yrotation Zrotation
				End Site
				{
					OFFSET 0.000000 -2.449906 4.627600 
				}
			}
		}
	}
	JOINT rThigh
	{
		OFFSET -5.308129 -1.633274 1.361059 
		CHANNELS 3 Xrotation Zrotation Yrotation
		JOINT rShin
		{
			OFFSET 2.041588 -20.007561 0.000000 
			CHANNELS 3 Xrotation Zrotation Yrotation
			JOINT rFoot
			{
				OFFSET 0.000000 -19.190928 -1.224953 
				CHANNELS 3 Xrotation Yrotation Zrotation
				End Site
				{
					OFFSET 0.000000 -2.449906 4.627600 
				}
			}
		}
	}
}
MOTION
Frames: 18
Frame Time: 0.033333
0.036044 43.891884 0.422893 -0.527800 -2.382711 90.754349 0.000000 0.000000 0.000000 -0.039063 -0.185547 6.406376 6.505075 -1.083788 -0.104756 -9.681673 -1.168356 -12.748817 6.371006 17.854874 22.447418 -96.129906 -5.713551 -6.823674 -36.483536 1.274715 33.874947 -7.174812 13.933047 48.198433 -12.305005 -16.168604 20.807650 77.635536 22.613985 72.206619 14.981245 -18.021971 -9.375320 24.323746 -1.208689 -10.181742 5.145567 8.065475 19.921366 60.281578 4.851521 -1.528570 8.669185 0.235545 -20.425215 -0.087435 3.417898 2.181604 13.972681 1.862398 0.698067 -10.888032 -9.690075 19.390261 
-0.000607 43.882225 0.748547 -1.466121 -2.391796 91.174423 0.000000 0.000000 0.000000 0.087900 0.820312 6.632257 6.194543 -1.819382 -0.159660 -9.678985 -0.658363 -12.692669 7.933984 17.728840 21.928339 -95.558685 -5.529037 -7.176986 -36.795040 0.459580 34.171188 -6.546501 14.191070 48.383423 -11.374349 -17.311424 20.844912 78.051102 23.077745 72.339844 15.218999 -18.694487 -9.791821 23.995691 -0.964287 -10.148820 -0.537525 9.774101 20.495598 66.489723 7.516894 -1.139235 10.122260 1.680601 -20.196978 2.625852 4.704658 2.489338 12.870030 1.646256 0.568460 -11.951464 -9.382833 19.812172 
-0.087724 43.896088 0.968275 -1.778831 -2.342622 91.137123 0.000000 0.000000 0.000000 0.293056 1.396466 6.755424 6.061889 -2.786572 -0.229424 -9.570323 -0.055671 -11.934849 9.948009 17.218172 21.327492 -94.928459 -5.361165 -7.560490 -36.972351 -0.585806 32.175793 -4.932337 13.495714 49.006344 -9.872733 -18.503525 21.101973 78.513580 23.992779 72.390488 15.002553 -19.275377 -10.024287 23.980492 -0.779108 -10.100602 -5.449098 10.311186 20.496820 69.532791 9.016403 -0.927773 9.378411 3.065236 -19.434374 5.162536 5.279798 2.595434 11.922227 1.451314 0.443117 -13.022804 -8.559501 20.000200 
-0.209590 43.922276 1.108573 -1.642067 -2.401358 90.810951 0.000000 0.000000 0.000000 0.341924 1.562472 6.796695 6.135717 -3.673668 -0.290592 -9.473270 0.464182 -11.030411 11.729881 16.663267 20.841467 -94.384857 -5.021633 -7.912992 -37.108654 -1.754701 28.165194 -3.043837 12.290574 49.780849 -8.568869 -19.747875 21.339321 79.187363 25.339821 72.457855 14.410570 -19.422108 -10.201689 23.928427 -0.663409 -10.084949 -9.840305 10.050881 20.115944 69.617378 9.447101 -0.817600 7.560551 4.024795 -18.889366 7.318792 5.269902 2.558179 11.414558 1.344191 0.388935 -14.230228 -7.607428 20.239120 
-0.348681 43.952698 1.184648 -1.084907 -2.362858 90.474388 0.000000 0.000000 0.000000 0.459097 1.269491 6.719370 6.277685 -4.318706 -0.341811 -9.396060 0.733731 -10.326262 12.745659 16.230427 20.602770 -93.987404 -4.659919 -8.168199 -37.326508 -2.816532 23.858492 -1.556822 11.593846 50.388676 -7.837850 -20.687269 21.456688 79.760193 26.836824 72.429428 13.769205 -19.067924 -10.798056 23.556664 -0.596353 -10.143761 -13.271431 9.218764 19.536264 66.810547 9.013388 -0.858590 5.604411 4.550909 -18.763439 9.303572 4.793639 2.384397 11.244538 1.374806 0.363456 -15.524872 -7.402274 19.895861 
-0.483131 43.985394 1.226040 -0.420199 -2.080022 90.308205 0.000000 0.000000 0.000000 0.859451 0.761633 6.603351 6.291458 -4.771924 -0.374172 -9.327812 0.761889 -9.836358 13.096976 15.852610 20.568813 -93.701843 -4.567685 -8.344531 -37.572811 -3.326638 21.689436 -1.127591 11.511465 50.597145 -7.365675 -20.991018 21.583235 79.661552 28.049683 72.095116 13.639149 -18.738873 -12.104946 23.009142 -0.828003 -10.275953 -15.379951 8.280237 19.004265 61.463081 7.854501 -0.934916 4.130752 4.552035 -18.721565 11.493799 4.199418 2.168490 11.001128 1.433671 0.355765 -16.914114 -7.655875 19.123270 
-0.619487 44.006382 1.253589 0.097710 -1.904294 90.191750 0.000000 0.000000 0.000000 1.191424 0.312432 6.490926 6.186196 -5.044752 -0.394573 -9.337310 0.696811 -9.522465 13.068905 15.436248 20.679920 -93.433640 -4.701178 -8.501835 -37.825027 -3.136051 22.276764 -1.910002 11.377579 50.366238 -7.146267 -21.017139 21.670801 79.229149 28.901110 71.654999 14.085779 -18.597227 -13.309695 22.277355 -1.065940 -10.412867 -16.606749 7.554096 18.652143 54.068722 6.022686 -1.030679 3.012865 4.260277 -18.585583 13.678736 3.720448 2.009749 10.646102 1.440767 0.328567 -18.376965 -7.807541 18.852081 
-0.751885 44.011921 1.271991 0.332207 -1.865203 89.969345 0.000000 0.000000 0.000000 1.416018 0.107389 6.447985 5.991235 -5.164601 -0.399165 -9.435364 0.789282 -9.407403 12.954831 14.960068 20.820042 -93.244637 -4.799441 -8.609386 -38.258057 -2.496845 23.992712 -3.131121 11.326965 49.967815 -7.015800 -20.893806 21.735075 78.573845 29.485796 71.156975 14.923409 -18.643806 -13.831726 21.519838 -1.100288 -10.501978 -16.956736 7.240230 18.518230 45.488789 3.677720 -1.166640 2.315742 4.122073 -18.494146 15.768750 3.525020 1.919438 10.214121 1.287558 0.266232 -19.689110 -7.716073 18.849489 
-0.852997 43.992035 1.272955 0.263802 -1.796856 89.454315 0.000000 0.000000 0.000000 1.640637 0.214756 6.461266 5.854167 -5.188234 -0.408101 -9.671023 1.029326 -9.246083 12.919803 14.549481 20.930422 -93.276772 -4.928139 -8.590049 -38.350727 -1.816882 24.685366 -3.747027 11.478053 49.762062 -6.990038 -20.761694 21.769667 78.101723 29.954697 70.786308 15.793851 -18.645136 -13.365446 20.990927 -0.990893 -10.543187 -16.158665 7.320859 18.612957 36.227062 0.919692 -1.263206 1.910294 4.607709 -18.551334 17.837397 3.622170 1.963981 9.870996 1.045183 0.164466 -20.852131 -7.444888 18.811720 
-0.902931 43.927357 1.215387 0.087930 -1.718748 88.737305 0.000000 0.000000 0.000000 1.855516 0.409941 6.497725 5.647322 -5.086131 -0.398256 -9.818230 1.139636 -8.934168 12.609937 14.339125 21.057919 -93.599304 -4.865735 -8.394040 -38.267258 -1.271059 23.716362 -3.399622 11.468266 49.884644 -7.070541 -20.638062 21.746655 78.003311 30.348583 70.638580 16.273264 -18.617987 -12.032573 21.137903 -0.731908 -10.462460 -14.545237 7.259741 18.748896 27.027809 -1.646439 -1.330097 1.245449 5.964776 -18.881914 19.764692 3.651764 1.971758 10.073099 0.781124 0.106863 -21.989822 -7.155508 19.197958 
-0.903728 43.834915 1.095319 -0.107471 -1.738278 88.167320 0.000000 0.000000 0.000000 1.933695 0.585604 6.533541 5.526707 -4.730424 -0.371603 -10.051202 0.897508 -8.867401 11.986957 14.357973 21.239584 -94.128174 -4.745049 -8.080262 -38.131763 -0.736228 22.812397 -3.038532 11.390920 50.018436 -7.223953 -20.257467 21.747545 78.016151 30.183617 70.685318 16.432201 -18.884428 -10.679113 21.800640 -1.061774 -10.421183 -13.084696 6.902918 18.760212 19.813782 -3.115475 -1.215614 0.482926 6.885933 -19.504574 21.262732 3.544030 1.920539 10.982302 0.623125 0.164879 -23.009745 -7.131568 20.228882 
-0.842916 43.748219 0.942844 -0.410337 -1.699175 87.853958 0.000000 0.000000 0.000000 1.982620 0.810062 6.590677 5.591500 -4.235659 -0.338496 -10.323012 0.498835 -9.008930 11.224968 14.528211 21.417759 -94.641266 -4.740904 -7.765817 -37.960361 -0.211016 23.203337 -3.465697 11.444971 49.900604 -7.520697 -19.712173 21.724777 78.176895 29.481392 70.940231 16.167757 -19.288622 -9.655461 22.867325 -1.584717 -10.377465 -11.970091 6.491344 18.724941 15.945567 -3.517705 -1.036595 0.164938 6.555104 -20.684351 22.508408 3.407708 1.881114 12.466439 0.605523 0.286892 -23.726038 -7.387716 21.770195 
-0.656175 43.683216 0.748383 -0.703277 -1.191317 87.592743 0.000000 0.000000 0.000000 2.285522 1.024575 6.623090 5.940349 -3.726485 -0.302381 -10.566531 0.202930 -9.191643 10.831124 14.652093 21.514011 -94.805908 -4.739221 -7.667485 -37.849583 -0.113373 24.834801 -4.323094 11.778489 49.629707 -7.607041 -19.146959 21.784607 78.431046 28.297224 71.352783 15.597222 -19.476923 -9.049431 23.992661 -2.175843 -10.357914 -10.507844 6.093862 18.688278 14.847416 -3.279571 -0.914322 0.132754 5.169715 -20.136469 24.038898 3.026621 1.762515 14.502368 0.663772 0.470250 -24.108849 -7.468523 23.863544 
-0.358053 43.638805 0.484259 -0.703146 -0.439420 87.241722 0.000000 0.000000 0.000000 2.607793 0.965796 6.606644 6.534666 -3.349176 -0.270040 -10.673990 0.230452 -9.270054 10.832400 14.492621 21.544212 -94.481819 -4.645108 -7.874258 -37.677361 -0.508955 26.471678 -4.857639 11.866376 49.478168 -7.482302 -18.493484 21.919529 78.563835 26.881674 71.753601 15.070940 -19.361240 -8.588971 25.145348 -3.119621 -10.385658 -8.495673 5.360867 18.579193 14.807529 -2.737207 -0.783081 0.552858 3.370068 -18.997742 25.543179 2.098933 1.501218 17.130869 0.780950 0.709913 -24.328388 -7.261539 25.988787 
-0.028499 43.620865 0.153716 -0.166016 0.136718 86.864838 0.000000 0.000000 0.000000 2.617264 0.438995 6.484984 7.169101 -3.147992 -0.263616 -10.654756 0.387205 -9.139183 11.007113 14.084902 21.571060 -93.858406 -4.536283 -8.256259 -37.390301 -1.180547 26.989618 -4.592448 11.607093 49.590981 -7.350309 -17.856501 22.065588 78.692841 25.475613 72.146690 14.644552 -19.163160 -7.875230 26.394831 -4.179868 -10.424947 -6.678195 4.070302 18.263023 15.076391 -2.245824 -0.714600 1.199192 2.653759 -16.965876 26.302574 0.380495 0.980911 20.487448 1.171306 1.072944 -23.847706 -6.926556 28.239290 
0.273610 43.644150 -0.243239 0.791044 0.488235 86.432602 0.000000 0.000000 0.000000 2.500055 -0.380497 6.311448 7.590779 -3.294025 -0.268817 -10.479294 0.507595 -8.866997 11.285437 13.527203 21.605011 -93.227959 -4.564016 -8.638928 -36.910572 -1.900588 26.106533 -3.509708 11.374019 49.952469 -7.113163 -17.567162 22.181192 79.219452 24.171892 72.749092 14.232340 -19.004528 -7.614252 27.537264 -5.362098 -10.482607 -5.093279 2.475582 17.807581 15.845391 -1.790590 -0.636555 1.244321 2.315840 -15.474304 25.835899 -2.021129 0.252626 25.262548 1.655694 1.624318 -21.933725 -6.214801 31.159060 
0.464966 43.704941 -0.690874 2.002158 0.819812 85.888168 0.000000 0.000000 0.000000 2.735055 -1.277840 6.100867 7.487768 -3.852045 -0.307319 -10.274797 0.674546 -8.756033 11.514044 13.082541 21.627253 -92.930687 -4.881810 -8.795411 -36.380356 -2.352372 23.939287 -2.074891 11.553877 50.373833 -6.655259 -17.851118 22.297138 80.180565 23.167431 73.515770 13.958514 -19.126333 -7.883718 28.391048 -6.328153 -10.543777 -3.534114 0.663366 17.281063 16.639614 -1.389881 -0.599419 0.678042 2.314344 -14.752273 23.928989 -4.871984 -0.603587 31.501406 2.049973 2.276691 -18.055305 -4.857962 34.775883 
0.519475 43.763977 -1.135191 3.154575 0.760565 85.256889 0.000000 0.000000 0.000000 2.882756 -2.077448 5.920516 7.120737 -4.397926 -0.350528 -10.362845 0.711134 -8.535387 11.458716 13.091567 21.644474 -93.081055 -5.153139 -8.688150 -36.230190 -2.438962 20.907787 -0.786867 12.236057 50.768875 -6.252044 -18.602436 22.324080 81.276016 22.473686 74.297943 13.717930 -19.452562 -8.349734 29.093563 -6.253404 -10.475188 -2.341807 -1.123314 16.751890 17.054401 -1.068057 -0.558960 -0.100424 2.867105 -14.379065 20.554171 -7.401636 -1.375713 38.125759 1.961605 2.882925 -12.780888 -3.882126 37.167248 
